<svg width="100" height="100" viewBox="0 0 100 100" fill="none" xmlns="http://www.w3.org/2000/svg">
<path d="M52.6591 92.8182C45.7045 92.8182 39.5568 91.8636 34.2159 89.9545C28.875 88.0682 24.3863 85.2841 20.75 81.6023C17.1136 77.9205 14.3636 73.4091 12.5 68.0682C10.6363 62.7273 9.70453 56.6136 9.70453 49.7273C9.70453 43.0682 10.6477 37.1136 12.5341 31.8636C14.4432 26.6136 17.2045 22.1591 20.8182 18.5C24.4545 14.8182 28.8636 12.0114 34.0454 10.0795C39.25 8.14773 45.1363 7.18182 51.7045 7.18182C58.0909 7.18182 63.6818 8.22727 68.4773 10.3182C73.2954 12.3864 77.3182 15.1932 80.5454 18.7386C83.7954 22.2614 86.2273 26.2273 87.8409 30.6364C89.4773 35.0455 90.2954 39.5909 90.2954 44.2727C90.2954 47.5682 90.1364 50.9091 89.8182 54.2955C89.5 57.6818 88.8295 60.7955 87.8068 63.6364C86.7841 66.4545 85.2045 68.7273 83.0682 70.4545C80.9545 72.1818 78.0909 73.0455 74.4773 73.0455C72.8863 73.0455 71.1363 72.7955 69.2273 72.2955C67.3182 71.7955 65.625 70.9659 64.1477 69.8068C62.6704 68.6477 61.7954 67.0909 61.5227 65.1364H61.1136C60.5682 66.4545 59.7273 67.7045 58.5909 68.8864C57.4773 70.0682 56.0113 71.0114 54.1932 71.7159C52.3977 72.4205 50.2045 72.7273 47.6136 72.6364C44.6591 72.5227 42.0568 71.8636 39.8068 70.6591C37.5568 69.4318 35.6704 67.7727 34.1477 65.6818C32.6477 63.5682 31.5113 61.125 30.7386 58.3523C29.9886 55.5568 29.6136 52.5455 29.6136 49.3182C29.6136 46.25 30.0682 43.4432 30.9773 40.8977C31.8863 38.3523 33.1477 36.125 34.7613 34.2159C36.3977 32.3068 38.3068 30.7841 40.4886 29.6477C42.6932 28.4886 45.0682 27.7727 47.6136 27.5C49.8863 27.2727 51.9545 27.375 53.8182 27.8068C55.6818 28.2159 57.2159 28.8409 58.4204 29.6818C59.625 30.5 60.3863 31.4091 60.7045 32.4091H61.1136V28.5909H68.3409V59.4091C68.3409 61.3182 68.875 63 69.9432 64.4545C71.0113 65.9091 72.5682 66.6364 74.6136 66.6364C76.9318 66.6364 78.7045 65.8409 79.9318 64.25C81.1818 62.6591 82.0341 60.2045 82.4886 56.8864C82.9659 53.5682 83.2045 49.3182 83.2045 44.1364C83.2045 41.0909 82.7841 38.0909 81.9432 35.1364C81.125 32.1591 79.875 29.375 78.1932 26.7841C76.5341 24.1932 74.4318 21.9091 71.8863 19.9318C69.3409 17.9545 66.3523 16.4091 62.9204 15.2955C59.5113 14.1591 55.6363 13.5909 51.2954 13.5909C45.9545 13.5909 41.1704 14.4205 36.9432 16.0795C32.7386 17.7159 29.1591 20.1136 26.2045 23.2727C23.2727 26.4091 21.0341 30.2273 19.4886 34.7273C17.9659 39.2045 17.2045 44.2955 17.2045 50C17.2045 55.7955 17.9659 60.9432 19.4886 65.4432C21.0341 69.9432 23.3068 73.7386 26.3068 76.8295C29.3295 79.9205 33.0682 82.2614 37.5227 83.8523C41.9773 85.4659 47.1136 86.2727 52.9318 86.2727C55.4318 86.2727 57.8977 86.0341 60.3295 85.5568C62.7613 85.0795 64.9091 84.5568 66.7727 83.9886C68.6363 83.4205 69.9773 83 70.7954 82.7273L72.7045 89C71.2954 89.5909 69.4545 90.1818 67.1818 90.7727C64.9318 91.3636 62.5227 91.8523 59.9545 92.2386C57.4091 92.625 54.9773 92.8182 52.6591 92.8182ZM48.7045 65.6818C51.75 65.6818 54.2159 65.0682 56.1023 63.8409C57.9886 62.6136 59.3636 60.7614 60.2273 58.2841C61.0909 55.8068 61.5227 52.6818 61.5227 48.9091C61.5227 45.0909 61.0454 42.1136 60.0909 39.9773C59.1363 37.8409 57.7273 36.3409 55.8636 35.4773C54 34.6136 51.7045 34.1818 48.9773 34.1818C46.3863 34.1818 44.1704 34.8636 42.3295 36.2273C40.5113 37.5682 39.1136 39.3636 38.1363 41.6136C37.1818 43.8409 36.7045 46.2727 36.7045 48.9091C36.7045 51.8182 37.0909 54.5568 37.8636 57.125C38.6363 59.6705 39.8977 61.7386 41.6477 63.3295C43.3977 64.8977 45.75 65.6818 48.7045 65.6818Z" fill="#C2530F"/>
</svg>
